<?xml version="1.0" encoding="UTF-8" standalone="no"?>
<!-- Created with Inkscape (http://www.inkscape.org/) -->

<svg
   width="1000mm"
   height="1000mm"
   viewBox="0 0 1000 1000"
   version="1.1"
   id="svg1"
   inkscape:export-filename=".\lines.svg"
   inkscape:export-xdpi="96"
   inkscape:export-ydpi="96"
   sodipodi:docname="lines.svg"
   inkscape:version="1.3.2 (091e20e, 2023-11-25, custom)"
   xmlns:inkscape="http://www.inkscape.org/namespaces/inkscape"
   xmlns:sodipodi="http://sodipodi.sourceforge.net/DTD/sodipodi-0.dtd"
   xmlns="http://www.w3.org/2000/svg"
   xmlns:svg="http://www.w3.org/2000/svg">
  <sodipodi:namedview
     id="namedview1"
     pagecolor="#505050"
     bordercolor="#ffffff"
     borderopacity="1"
     inkscape:showpageshadow="0"
     inkscape:pageopacity="0"
     inkscape:pagecheckerboard="1"
     inkscape:deskcolor="#505050"
     inkscape:document-units="mm"
     inkscape:zoom="0.076051544"
     inkscape:cx="-1545.0048"
     inkscape:cy="2557.476"
     inkscape:window-width="1920"
     inkscape:window-height="1009"
     inkscape:window-x="1912"
     inkscape:window-y="-8"
     inkscape:window-maximized="1"
     inkscape:current-layer="layer1" />
  <defs
     id="defs1" />
  <g
     inkscape:label="Layer 1"
     inkscape:groupmode="layer"
     id="layer1">
    <path
       style="fill:none;fill-opacity:1;stroke:#ffffff;stroke-width:2.22303;stroke-dasharray:none;stroke-opacity:1"
       d="m -64.563731,23.995784 c 0,0 -283.933109,103.005356 -34.05161,75.362143 24.266763,-2.684518 65.8823,79.487823 151.38543,-27.871854 C 141.3533,-39.741021 336.2039,111.94457 -67.494101,336.78697 -202.65423,412.06534 0.99788604,529.8566 283.58845,516.51568 393.3982,511.33163 549.15177,326.50192 461.16336,253.26907 338.0317,150.78645 761.1699,1.7997601 829.78439,73.831167 907.95851,155.89827 579.17229,315.44162 612.60836,496.37698 c 25.37929,137.33705 -735.35374,248.86287 -760.19507,428.59719 -24.84133,179.73433 210.420658,137.35793 210.420658,137.35793 0,0 2.252535,-209.13499 187.667102,-253.18222 C 697.84416,702.87869 947.97717,512.48975 854.88537,436.59599 762.61889,361.37509 987.70329,77.805392 1102.0507,204.12374 1239.2624,355.69996 1301.9778,888.4428 1301.9778,888.4428 L 1078.229,601.51914 c 0,0 -375.32775,339.29031 -451.8503,252.24055 -80.65098,-91.74613 -494.86579,291.86391 -494.86579,291.86391 0,0 545.9546,-101.3481 540.10959,-96.9643 -5.84502,4.3837 273.80922,-231.81799 446.2373,-183.59659 172.428,48.2214 -216.85445,250.86139 -216.85445,250.86139 l -777.01379,107.4593 c 0,0 -605.49213,-157.056 -611.69172,-237.65048 -6.19958,-80.59451 171.52168,-632.35696 181.85429,-644.75613 10.33264,-12.39914 9.34023,-237.4858 9.34023,-237.4858 z"
       id="path1"
       sodipodi:nodetypes="csssssssscsssccscssccsscc" />
    <path
       style="fill:none;fill-opacity:1;stroke:#ffffff;stroke-width:2.22303;stroke-dasharray:none;stroke-opacity:1"
       d="m -54.126731,39.651285 c 0,0 -158.879979,-141.842415 91.192396,-115.982863 C 196.14369,-59.881598 192.97865,-118.52663 256.2916,-40.711682 347.27038,71.106018 147.81239,290.76237 39.937222,368.23038 -108.49653,474.82458 417.4407,468.31995 379.29717,277.3326 362.22623,191.8572 611.75537,-48.248202 441.31621,-106.40808 270.54844,-164.68009 883.46907,-84.032466 952.41914,-20.101836 1018.4167,41.09124 609.45007,431.55842 743.94061,529.42748 886.21541,632.96116 4.2381245,763.5046 -20.603205,943.23892 -45.444535,1122.9733 115.01896,1078.8573 115.01896,1078.8573 c 0,0 58.43212,-228.9763 248.5496,-215.78292 121.86805,8.45715 169.00774,-132.67193 278.41891,-84.14729 110.93884,49.20217 297.8837,-148.75985 305.00833,-307.18522 9.76115,-217.05177 515.016,434.09593 515.016,434.09593 L 1173.0317,660.66214 c 0,0 -470.14253,344.85426 -594.48924,285.29105 -136.35274,-65.31415 -286.99554,217.06541 -286.99554,217.06541 0,0 531.16885,-110.9153 525.32384,-106.5315 -5.84502,4.3837 288.59494,-222.25079 461.02304,-174.02939 172.428,48.2214 -216.8544,250.86139 -216.8544,250.86139 l -777.01383,107.4593 c 0,0 -605.49213,-157.056 -611.69172,-237.6505 -6.19958,-80.59449 171.52168,-632.35694 181.85429,-644.75611 10.33264,-12.39914 9.34023,-237.4858 9.34023,-237.4858 z"
       id="path2"
       sodipodi:nodetypes="csssssssscsssccscssccsscc" />
    <path
       style="fill:none;stroke:#ffffff;stroke-width:2.22303;stroke-dasharray:none;stroke-opacity:1"
       d="M 317.95818,-22.140221 C 378.86392,52.9328 266.70913,254.59754 186.75833,306.87308 c -70.8056,46.29598 -45.15223,124.24129 73.97474,39.45911 72.28885,-51.44768 190.47158,-324.76041 99.66054,-366.012387 -94.73597,-43.034921 -51.36219,-13.463231 -42.43543,-2.460024 z"
       id="path3"
       sodipodi:nodetypes="sssss" />
    <path
       style="fill:none;stroke:#ffffff;stroke-width:2.22303;stroke-dasharray:none;stroke-opacity:1"
       d="m 516.51026,242.69078 c 104.55103,44.28045 -10.45295,72.76409 29.37545,82.00997 C 649.20674,348.686 740.05594,156.13475 679.78533,117.38936 635.87407,89.160688 430.0234,206.06106 516.51026,242.69078 Z"
       id="path4"
       sodipodi:nodetypes="ssss" />
    <path
       style="fill:none;stroke:#ffffff;stroke-width:2.22303;stroke-dasharray:none;stroke-opacity:1"
       d="m -115.67675,765.38001 c 69.972587,-76.93552 598.00518,-145.4631 649.70326,-259.18549 118.2902,-260.20777 -153.076,106.1095 -379.211,60.8825 C 71.859789,550.48588 75.668249,602.73677 -95.672504,505.32476 -267.01326,407.91277 -163.973,818.48218 -115.67675,765.38001 Z"
       id="path5"
       sodipodi:nodetypes="sssss" />
  </g>
</svg>
