<?xml version="1.0" encoding="UTF-8" standalone="no"?>
<!-- Created with Inkscape (http://www.inkscape.org/) -->

<svg
   width="200mm"
   height="200mm"
   viewBox="0 0 200 200"
   version="1.1"
   id="svg1"
   inkscape:version="1.3.2 (091e20e, 2023-11-25, custom)"
   sodipodi:docname="social.svg"
   inkscape:export-filename="social.png"
   inkscape:export-xdpi="96"
   inkscape:export-ydpi="96"
   xmlns:inkscape="http://www.inkscape.org/namespaces/inkscape"
   xmlns:sodipodi="http://sodipodi.sourceforge.net/DTD/sodipodi-0.dtd"
   xmlns="http://www.w3.org/2000/svg"
   xmlns:svg="http://www.w3.org/2000/svg">
  <sodipodi:namedview
     id="namedview1"
     pagecolor="#505050"
     bordercolor="#ffffff"
     borderopacity="1"
     inkscape:showpageshadow="0"
     inkscape:pageopacity="0"
     inkscape:pagecheckerboard="1"
     inkscape:deskcolor="#505050"
     inkscape:document-units="mm"
     inkscape:zoom="0.72426347"
     inkscape:cx="704.16364"
     inkscape:cy="508.79275"
     inkscape:window-width="1920"
     inkscape:window-height="1009"
     inkscape:window-x="1912"
     inkscape:window-y="-8"
     inkscape:window-maximized="1"
     inkscape:current-layer="layer1"
     inkscape:export-bgcolor="#00000000" />
  <defs
     id="defs1" />
  <g
     inkscape:label="Layer 1"
     inkscape:groupmode="layer"
     id="layer1">
    <path
       d="M 100.0001,50.000049 A 25,25 0 0 0 75.000073,75.000073 25,25 0 0 0 100.0001,100.0001 25,25 0 0 0 125.00012,75.000073 25,25 0 0 0 100.0001,50.000049 Z"
       style="fill:#ffffff;stroke-width:0.265784"
       id="path4" />
    <path
       d="M 169.87335,172.78015 A 75,75 0 0 0 100.0001,125.00012 75,75 0 0 0 30.634306,171.96573 100,100 0 0 0 100.7308,200.73038 100,100 0 0 0 169.87335,172.78015 Z"
       style="fill:#ffffff;stroke-width:0.265784"
       id="path3" />
  </g>
</svg>
